<svg width="16" height="16" viewBox="0 0 16 16" fill="none" xmlns="http://www.w3.org/2000/svg">
<path d="M2 4.66632V3.3331C2 2.97951 2.14046 2.6404 2.39049 2.39037C2.64052 2.14034 2.97963 1.99988 3.33322 1.99988H4.66644" stroke="#314158" stroke-width="1.33322" stroke-linecap="round" stroke-linejoin="round"/>
<path d="M11.332 1.99988H12.6653C13.0188 1.99988 13.358 2.14034 13.608 2.39037C13.858 2.6404 13.9985 2.97951 13.9985 3.3331V4.66632" stroke="#314158" stroke-width="1.33322" stroke-linecap="round" stroke-linejoin="round"/>
<path d="M13.9985 11.3324V12.6656C13.9985 13.0192 13.858 13.3583 13.608 13.6083C13.358 13.8584 13.0188 13.9988 12.6653 13.9988H11.332" stroke="#314158" stroke-width="1.33322" stroke-linecap="round" stroke-linejoin="round"/>
<path d="M4.66644 13.9988H3.33322C2.97963 13.9988 2.64052 13.8584 2.39049 13.6083C2.14046 13.3583 2 13.0192 2 12.6656V11.3324" stroke="#314158" stroke-width="1.33322" stroke-linecap="round" stroke-linejoin="round"/>
<path d="M4.66602 7.99927H11.3321" stroke="#314158" stroke-width="1.33322" stroke-linecap="round" stroke-linejoin="round"/>
</svg>
